<svg version="1.0"
        xmlns="http://www.w3.org/2000/svg" height="48" viewBox="0 0 512 512" preserveAspectRatio="xMidYMid meet">
        <rect x="0" y="0" width="512" height="512" fill="#ffffffa0"/>
        <g transform="translate(32,480) scale(0.085000,-0.085000)" fill="#000000" stroke="none">
                <path d="M2239 5105 c-619 -88 -1128 -511 -1323 -1096 -48 -144 -76 -292 -83
-435 l-6 -121 -69 -16 c-291 -70 -560 -302 -679 -587 -46 -108 -69 -214 -76
-340 -9 -182 26 -341 114 -518 67 -135 124 -172 178 -117 33 32 31 61 -7 121
-44 69 -84 160 -110 251 -18 63 -22 103 -22 213 0 157 15 229 75 358 128 277
362 447 682 497 58 9 64 28 70 210 8 236 47 401 141 601 400 843 1475 1106
2221 544 33 -24 86 -68 117 -97 46 -42 65 -53 91 -53 38 0 62 21 72 62 6 23
-1 35 -47 84 -132 140 -400 303 -614 373 -215 70 -511 97 -725 66z"/>
                <path d="M3701 4384 c-12 -15 -21 -34 -21 -42 0 -9 25 -59 54 -111 67 -118
110 -224 147 -361 18 -67 36 -111 48 -121 12 -9 50 -20 88 -24 558 -59 977
-547 950 -1105 -23 -462 -327 -846 -773 -975 -97 -28 -296 -48 -422 -43 l-73
3 1 390 0 390 -26 54 c-17 34 -44 66 -75 89 -26 21 -48 39 -48 42 0 3 22 21
48 42 31 23 58 55 75 89 l26 53 0 380 c0 437 2 425 -89 509 -163 152 -569 247
-1051 247 -482 0 -888 -95 -1051 -247 -91 -84 -89 -72 -89 -509 l0 -380 26
-53 c17 -34 44 -66 75 -89 26 -21 48 -39 48 -42 0 -3 -22 -22 -48 -42 -32 -24
-58 -55 -75 -91 l-27 -54 3 -392 3 -391 -195 0 c-355 1 -487 26 -659 125 -43
25 -84 45 -92 45 -22 0 -59 -29 -68 -54 -20 -54 29 -100 180 -170 167 -77 304
-96 712 -96 l257 0 70 -35 70 -35 0 -145 0 -145 -54 0 c-47 0 -57 -4 -75 -26
-14 -18 -21 -41 -21 -70 l0 -44 -734 0 c-484 0 -744 -4 -762 -10 -55 -21 -71
-78 -34 -118 l21 -22 754 0 755 0 0 -49 c0 -34 6 -56 21 -75 l20 -26 185 0
c242 0 224 -17 224 218 0 212 -1 214 -87 222 l-58 5 -3 118 c-1 64 0 117 4
117 3 0 32 -7 63 -14 53 -14 190 -38 294 -51 l47 -6 0 -393 0 -393 -87 -86
-88 -87 -817 0 -818 0 0 50 c0 41 -5 56 -25 75 -24 25 -27 25 -200 25 -238 0
-225 13 -225 -225 0 -238 -13 -225 225 -225 173 0 176 0 200 25 20 19 25 34
25 75 l0 50 852 0 851 0 114 112 c63 62 121 125 129 140 11 22 14 103 14 438
l0 410 150 0 150 0 0 -410 c0 -335 3 -416 14 -438 8 -15 66 -78 129 -139 l114
-113 851 0 852 0 0 -50 c0 -41 5 -56 25 -75 24 -25 27 -25 200 -25 238 0 225
-13 225 225 0 238 13 225 -225 225 -173 0 -176 0 -200 -25 -20 -19 -25 -34
-25 -75 l0 -50 -817 0 -818 1 -87 83 -88 83 0 397 c0 218 2 396 5 396 2 0 55
7 117 16 97 13 157 24 266 49 l23 6 -3 -118 -3 -118 -58 -5 c-86 -8 -87 -10
-87 -222 0 -235 -18 -218 224 -218 l185 0 20 26 c15 19 21 41 21 75 l0 49 755
0 754 0 21 22 c37 40 21 97 -34 118 -18 6 -278 10 -762 10 l-734 0 0 44 c0 29
-7 52 -21 70 -18 22 -28 26 -75 26 l-54 0 0 145 0 145 68 33 67 34 245 6 c279
6 394 24 542 83 495 197 803 672 774 1194 -9 182 -48 324 -131 490 -169 335
-509 586 -873 642 -41 7 -75 17 -77 22 -50 183 -163 438 -220 500 -33 36 -86
36 -114 0z m-821 -659 c312 -33 567 -114 644 -206 33 -39 33 -51 -4 -92 -82
-94 -367 -178 -702 -208 -164 -14 -521 -6 -668 16 -274 40 -487 116 -555 197
-32 38 -32 50 6 93 75 85 334 168 629 200 159 18 487 18 650 0z m-1242 -504
c114 -57 317 -111 547 -143 140 -20 629 -17 785 5 210 29 394 79 512 138 32
16 60 29 63 29 3 0 5 -106 5 -235 0 -267 1 -263 -80 -315 -88 -57 -244 -106
-446 -140 -131 -23 -157 -37 -157 -89 0 -17 8 -40 19 -52 17 -20 26 -21 96
-16 81 7 278 47 350 73 40 14 44 13 97 -13 66 -33 121 -86 121 -115 0 -31 -61
-83 -143 -122 -226 -108 -629 -161 -1043 -137 -229 14 -249 11 -260 -34 -10
-42 4 -75 39 -90 18 -7 111 -19 207 -25 426 -30 890 34 1132 156 l68 34 0
-240 0 -239 -31 -36 c-80 -91 -364 -176 -688 -206 -164 -14 -534 -7 -676 15
-287 43 -490 114 -559 197 l-26 31 0 239 0 239 62 -31 c73 -37 162 -69 191
-69 32 0 67 39 67 75 0 42 -19 57 -116 94 -97 37 -185 97 -198 133 -7 20 -5
32 12 54 24 35 123 96 154 96 13 0 75 -13 138 -30 146 -38 292 -59 514 -74
171 -11 178 -11 204 9 19 14 28 31 30 56 4 48 -24 77 -75 77 -87 1 -345 22
-438 36 -256 40 -480 124 -529 199 -13 20 -16 62 -16 260 0 129 2 235 5 235 3
0 31 -13 63 -29z m212 -2351 l0 -70 -75 0 -75 0 0 70 0 70 75 0 75 0 0 -70z
m1570 0 l0 -70 -75 0 -75 0 0 70 0 70 75 0 75 0 0 -70z m-3120 -645 l0 -75
-75 0 -75 0 0 75 0 75 75 0 75 0 0 -75z m4670 0 l0 -75 -75 0 -75 0 0 75 0 75
75 0 75 0 0 -75z"/>
                <path d="M2125 2875 c-47 -46 -17 -125 49 -125 34 0 76 41 76 75 0 33 -42 75
-75 75 -14 0 -37 -11 -50 -25z"/>
                <path d="M2896 2879 c-69 -54 6 -160 85 -118 48 25 44 105 -7 128 -35 16 -48
14 -78 -10z"/>
                <path d="M2507 2852 c-23 -25 -22 -85 1 -105 25 -23 85 -22 105 1 23 25 22 85
-1 105 -25 23 -85 22 -105 -1z"/>
                <path d="M2122 1747 c-46 -49 -14 -121 53 -121 27 0 43 6 56 23 59 73 -45 166
-109 98z"/>
                <path d="M2890 1750 c-30 -30 -27 -83 6 -109 30 -24 43 -26 78 -10 33 15 50
57 37 92 -19 48 -85 63 -121 27z"/>
                <path d="M2516 1729 c-50 -39 -23 -129 38 -129 39 0 57 11 71 43 16 39 3 80
-31 96 -35 16 -47 14 -78 -10z"/>
        </g>
</svg>