<svg version="1.0"
    xmlns="http://www.w3.org/2000/svg" height="48" viewBox="0 0 512.000000 512.000000" preserveAspectRatio="xMidYMid meet">

    <g transform="translate(0.000000,512.000000) scale(0.100000,-0.100000)" fill="#000000" stroke="none">
        <path d="M970 4290 l0 -830 -392 0 c-392 0 -393 0 -443 -24 -60 -28 -87 -56
-114 -116 -20 -45 -21 -57 -21 -1579 0 -1147 3 -1544 12 -1573 6 -22 29 -59
50 -83 70 -80 20 -76 934 -73 l810 3 42 28 c23 15 54 46 69 69 l28 42 5 775 5
776 483 3 482 2 0 525 0 525 -485 0 -486 0 3 73 3 72 1433 3 1432 2 0 675 0
675 -1775 0 -1775 0 0 -400 0 -400 -75 0 -75 0 0 475 0 475 1925 0 1925 0 -2
-1652 -3 -1653 -919 -3 -919 -2 -494 -197 c-271 -108 -493 -199 -493 -203 0
-4 223 -95 495 -203 l495 -197 920 0 920 0 0 -150 0 -150 75 0 75 0 0 2560 0
2560 -2075 0 -2075 0 0 -830z m3998 478 l-3 -203 -1922 -2 -1923 -1 0 204 0
204 1925 0 1925 0 -2 -202z m-298 -1183 l0 -525 -1360 0 -1360 0 0 113 c0 124
-14 168 -66 221 -58 58 -91 66 -286 66 l-178 0 0 325 0 325 1625 0 1625 0 0
-525z m-2889 -304 c17 -21 19 -41 19 -217 l0 -194 -825 0 -825 0 0 185 c0 193
6 225 44 243 14 7 274 10 794 9 l774 -2 19 -24z m989 -1046 l0 -375 -407 0
-408 0 -4 364 c-2 200 0 369 3 375 5 8 126 11 412 11 l404 0 0 -375z m-1945
326 c-70 -33 -147 -110 -176 -177 -61 -137 -37 -300 60 -407 33 -37 34 -39 16
-50 -42 -23 -138 -125 -170 -179 -63 -107 -68 -135 -73 -435 l-4 -273 -164 0
-164 0 0 775 0 775 368 0 367 0 -60 -29z m975 -746 l0 -775 -149 0 -150 0 -3
288 -3 287 -28 65 c-36 85 -88 153 -165 214 l-61 49 32 37 c66 72 106 198 92
289 -19 128 -100 241 -210 293 l-60 28 353 0 352 0 0 -775z m-696 601 c23 -14
56 -44 72 -68 26 -39 29 -51 29 -123 0 -71 -3 -85 -27 -119 -95 -138 -281
-138 -376 0 -24 34 -27 48 -27 119 0 70 3 85 26 117 72 105 198 136 303 74z
m36 -602 c73 -33 142 -103 177 -178 l28 -61 3 -267 4 -268 -356 0 -356 0 0
263 c0 250 2 265 23 318 31 74 67 120 130 163 102 70 234 81 347 30z m2099
-994 c56 -60 101 -114 101 -120 0 -15 -200 -230 -213 -230 -7 0 -53 17 -104
37 l-93 36 0 157 0 157 88 35 c48 20 95 37 104 37 9 1 61 -48 117 -109z
m-1439 -270 l0 -341 -25 -24 -24 -25 -770 0 c-423 0 -777 3 -786 6 -41 16 -45
47 -45 394 l0 330 825 0 825 0 0 -340z"/>
        <path d="M2270 4765 l0 -75 1275 0 1275 0 0 75 0 75 -1275 0 -1275 0 0 -75z"/>
        <path d="M440 3090 l0 -80 75 0 75 0 0 80 0 80 -75 0 -75 0 0 -80z"/>
        <path d="M747 3163 c-4 -3 -7 -39 -7 -80 l0 -73 400 0 400 0 0 80 0 80 -393 0
c-217 0 -397 -3 -400 -7z"/>
        <path d="M905 731 c-84 -38 -134 -117 -135 -211 -1 -197 244 -294 383 -152 40
41 67 106 67 161 0 43 -38 128 -71 158 -65 59 -170 78 -244 44z m119 -142 c33
-15 50 -57 37 -92 -19 -49 -79 -62 -118 -25 -37 35 -26 99 20 118 30 12 32 12
61 -1z"/>
        <path d="M3170 2235 l0 -525 825 0 825 0 0 525 0 525 -825 0 -825 0 0 -525z"/>
    </g>
</svg>