<svg version="1.0"
        xmlns="http://www.w3.org/2000/svg" height="48" viewBox="0 0 512.000000 512.000000" preserveAspectRatio="xMidYMid meet">

        <g transform="translate(0.000000,512.000000) scale(0.100000,-0.100000)" fill="#000000" stroke="none">
                <path d="M1800 5069 c-158 -18 -346 -89 -482 -180 -35 -23 -100 -78 -145 -122
-130 -126 -220 -271 -278 -445 -30 -89 -25 -85 -120 -97 -72 -9 -219 -60 -295
-102 -225 -125 -383 -329 -451 -583 -32 -119 -32 -328 0 -445 46 -172 137
-322 269 -446 122 -115 245 -183 422 -232 72 -20 101 -21 671 -25 l596 -3 -18
-87 c-74 -348 -30 -704 126 -1027 217 -449 631 -766 1128 -867 159 -32 463
-32 613 0 316 68 584 212 805 432 168 167 250 286 344 497 76 170 120 353 132
553 6 102 5 107 -18 132 -26 29 -50 36 -91 25 -39 -10 -58 -54 -58 -131 0
-143 -56 -379 -126 -533 -77 -169 -222 -367 -351 -480 -196 -170 -444 -289
-708 -339 -123 -24 -368 -24 -490 0 -297 58 -549 190 -755 396 -201 200 -330
435 -392 714 -31 137 -33 445 -4 576 114 521 473 923 967 1079 159 51 256 65
439 65 131 -1 186 -5 269 -23 357 -76 663 -270 871 -551 l63 -85 -77 -6 c-61
-4 -81 -10 -98 -27 -33 -32 -30 -88 6 -118 27 -23 31 -24 221 -24 191 0 194 0
222 24 l28 24 0 200 c0 198 0 201 -24 226 -30 32 -78 34 -112 7 -21 -17 -25
-30 -29 -111 l-5 -92 -66 88 c-109 146 -270 294 -432 397 -122 78 -303 155
-464 197 -24 6 -43 16 -43 23 0 7 -7 55 -15 107 -73 483 -453 851 -947 915
-44 6 -50 10 -91 68 -55 77 -183 200 -267 257 -134 91 -316 158 -485 179 -101
12 -146 12 -255 0z m352 -188 c227 -59 418 -193 541 -378 26 -39 53 -76 61
-82 8 -7 54 -16 103 -21 225 -24 418 -116 569 -272 147 -152 227 -314 259
-524 l6 -42 -158 0 c-264 0 -461 -43 -700 -157 -159 -75 -285 -166 -429 -310
-147 -146 -238 -274 -314 -438 l-45 -97 -620 3 c-698 3 -664 0 -830 82 -187
92 -316 239 -388 442 -29 83 -31 97 -31 228 0 126 2 148 27 222 35 105 88 197
157 277 72 82 132 128 227 176 98 49 174 69 289 77 119 8 129 15 156 123 66
267 222 473 458 608 63 35 211 87 291 101 84 15 282 6 371 -18z"/>
                <path d="M2650 2717 c-54 -28 -61 -99 -13 -137 24 -19 42 -20 329 -20 l304 0
0 -250 0 -250 -289 0 c-185 0 -299 -4 -320 -11 -59 -21 -61 -32 -61 -408 0
-211 4 -350 10 -367 21 -54 17 -53 413 -54 l368 0 24 25 c16 15 25 36 25 55 0
19 -9 40 -25 55 l-24 25 -311 0 -310 0 0 255 0 255 310 0 311 0 24 25 25 24 0
365 0 365 -24 28 -24 28 -359 3 c-276 2 -364 -1 -383 -11z"/>
                <path d="M3664 2720 c-53 -21 -54 -26 -54 -416 l0 -361 26 -27 27 -26 308 0
309 0 0 -300 c0 -357 3 -370 89 -370 31 0 68 30 76 63 3 12 4 331 3 709 l-3
687 -22 23 c-33 33 -89 30 -119 -6 l-24 -27 0 -305 0 -304 -250 0 -250 0 0
289 c0 312 -4 342 -51 366 -32 17 -36 17 -65 5z"/>
                <path d="M835 1883 c-401 -47 -711 -316 -807 -700 -31 -124 -31 -312 0 -436
86 -345 345 -599 697 -683 92 -22 294 -23 390 -2 460 103 776 535 724 993 -14
129 -34 196 -89 312 -109 224 -297 391 -535 473 -106 37 -274 56 -380 43z
m295 -193 c262 -78 453 -274 526 -541 24 -88 24 -280 0 -368 -97 -356 -418
-590 -776 -568 -341 21 -626 268 -695 603 -84 409 195 819 611 894 83 15 250
5 334 -20z"/>
                <path d="M903 1632 c-13 -2 -32 -15 -43 -29 -18 -24 -20 -40 -20 -214 l0 -188
-35 -17 c-50 -23 -103 -89 -120 -148 -19 -63 -19 -80 1 -147 32 -109 157 -190
268 -174 69 11 143 59 178 116 l31 49 144 0 145 0 29 29 c38 38 38 74 0 112
l-29 29 -145 0 -144 0 -32 50 c-19 30 -50 61 -77 76 l-44 26 0 179 c0 139 -3
187 -15 208 -15 31 -55 49 -92 43z m81 -612 c12 -12 20 -33 20 -55 0 -42 -26
-72 -71 -81 -27 -5 -37 -1 -63 24 -18 19 -30 41 -30 57 0 16 12 38 30 57 26
25 36 29 63 24 18 -4 41 -15 51 -26z"/>
        </g>
</svg>
