<svg version="1.0"
        xmlns="http://www.w3.org/2000/svg" height="48" viewBox="0 0 512.000000 512.000000" preserveAspectRatio="xMidYMid meet">

        <g transform="translate(0.000000,512.000000) scale(0.100000,-0.100000)" fill="#ffffff" stroke="none">
                <path d="M220 5111 c-112 -36 -174 -119 -175 -231 -1 -291 405 -337 476 -55
24 96 -26 208 -116 260 -48 29 -139 41 -185 26z m99 -166 c38 -19 53 -62 36
-102 -14 -32 -32 -43 -71 -43 -83 0 -108 109 -34 147 32 16 35 16 69 -2z"/>
                <path d="M2171 5018 c-4 -13 -30 -89 -57 -171 l-49 -147 -50 -19 c-27 -11 -75
-30 -105 -44 l-55 -25 -159 80 -159 80 -329 -330 -330 -329 79 -158 79 -158
-44 -107 -45 -107 -166 -54 -166 -55 -3 -466 -2 -466 168 -56 169 -57 41 -98
c23 -53 42 -103 42 -109 0 -7 -23 -53 -51 -102 l-50 -90 -240 0 -239 0 0 -810
0 -810 285 0 285 0 0 120 0 120 308 0 307 0 120 -120 119 -120 221 -2 220 -3
5 -85 c6 -100 30 -157 92 -220 106 -110 275 -128 405 -44 93 60 138 143 149
272 l7 82 309 0 c340 0 353 2 416 63 54 52 76 103 76 177 1 53 -5 75 -28 117
-27 50 -28 54 -13 71 28 31 50 109 44 158 -2 25 -16 68 -31 95 -24 47 -25 52
-10 75 9 13 22 40 28 59 8 24 110 135 326 356 l314 321 -79 158 -78 158 35 83
c20 46 39 94 42 106 6 18 37 32 177 78 l169 57 -2 466 -3 465 -164 55 -163 54
-20 47 c-10 25 -31 72 -46 104 l-26 58 77 155 c42 85 77 160 77 167 0 7 -146
158 -325 337 l-325 325 -162 -81 -163 -80 -98 42 c-54 23 -102 45 -107 50 -4
5 -32 82 -61 172 l-54 162 -463 0 -462 0 -9 -22z m869 -292 l51 -155 82 -29
c45 -17 122 -48 170 -71 l88 -40 144 72 145 72 244 -244 244 -244 -69 -139
c-38 -76 -69 -144 -69 -152 0 -8 17 -49 37 -92 20 -42 51 -116 67 -162 l31
-86 153 -50 152 -51 -2 -349 -3 -350 -151 -49 -150 -50 -23 -66 c-12 -36 -43
-112 -69 -169 l-46 -103 71 -142 71 -142 -238 -245 c-131 -135 -242 -241 -246
-237 -5 4 -3 16 4 25 24 33 45 87 50 128 11 98 -68 219 -160 245 -23 7 -45 14
-47 16 -2 1 41 48 96 102 286 284 433 638 433 1041 0 207 -31 363 -109 555
-190 464 -610 796 -1121 886 -122 22 -384 16 -510 -10 -588 -123 -1025 -558
-1152 -1144 -26 -123 -32 -403 -10 -527 56 -310 187 -563 412 -793 l105 -107
-343 0 -343 0 17 33 c9 17 52 96 96 174 l78 143 -38 77 c-22 43 -54 119 -71
169 -32 90 -33 92 -74 104 -23 7 -93 30 -155 52 l-112 40 2 347 3 346 150 51
150 51 36 94 c20 52 52 128 71 169 l35 75 -71 143 -71 142 246 246 246 246
143 -72 143 -72 106 50 c58 27 131 58 161 67 30 10 60 22 66 29 7 6 31 70 54
141 24 72 47 138 52 148 8 16 35 17 353 17 l343 0 52 -154z m-285 -426 c206
-19 411 -87 569 -188 384 -246 615 -657 616 -1096 0 -358 -139 -689 -397 -942
l-86 -84 -29 59 c-15 32 -35 64 -43 71 -13 11 -6 22 53 79 349 339 438 862
222 1307 -161 333 -486 571 -849 624 -130 19 -344 8 -461 -25 -364 -100 -647
-361 -780 -720 -31 -83 -49 -165 -59 -272 -24 -257 41 -514 185 -733 48 -74
196 -232 264 -282 l35 -27 -57 -57 -57 -57 -26 17 c-15 10 -63 52 -107 94
-339 323 -477 791 -368 1247 95 401 397 748 782 899 136 54 272 81 463 95 11
0 70 -4 130 -9z m128 -349 c256 -68 476 -238 611 -472 137 -239 158 -568 52
-831 -61 -152 -183 -311 -316 -413 l-58 -45 -101 0 -101 0 0 193 0 192 160
160 161 160 -3 260 c-3 242 -5 263 -25 307 -32 70 -94 131 -166 163 -56 26
-73 29 -177 29 l-115 1 -3 -229 c-1 -149 -6 -234 -13 -243 -9 -10 -46 -13
-142 -13 -107 0 -134 3 -149 17 -16 15 -18 36 -18 246 l0 230 -120 -5 c-109
-5 -126 -8 -184 -37 -74 -36 -118 -82 -155 -161 -26 -54 -26 -60 -29 -309 l-4
-254 166 -166 166 -167 -2 -184 -3 -185 -101 -3 -100 -3 -65 50 c-165 124
-292 315 -351 527 -19 67 -22 105 -22 244 -1 195 14 263 94 425 128 262 366
453 645 518 108 25 112 26 255 22 97 -2 157 -9 213 -24z m-563 -638 l0 -177
62 -63 62 -63 202 0 201 0 61 64 62 64 0 176 0 176 24 0 c29 0 82 -35 110 -73
19 -26 21 -44 24 -240 l3 -211 -143 -143 -143 -143 -205 0 -205 0 -143 143
-144 144 4 204 c3 184 5 207 24 239 25 44 78 80 115 80 l29 0 0 -177z m480
-958 l0 -165 -160 0 -160 0 0 165 0 165 160 0 160 0 0 -165z m465 -350 c16
-15 25 -36 25 -55 0 -19 -9 -40 -25 -55 l-24 -25 -438 0 -438 0 -175 -175
-175 -175 58 -57 57 -58 95 95 95 95 0 -513 0 -512 -188 0 -187 0 -120 120
-120 120 -342 0 -343 0 0 450 0 450 423 0 422 0 160 160 160 160 528 0 528 0
24 -25z m-2415 -785 l0 -650 -120 0 -120 0 0 650 0 650 120 0 120 0 0 -650z
m1795 441 c-8 -56 7 -124 37 -165 l20 -28 -28 -52 c-41 -73 -41 -160 0 -233
l28 -52 -20 -25 c-11 -15 -26 -49 -32 -77 -15 -62 -1 -142 32 -184 l20 -26
-28 -52 c-37 -67 -40 -160 -6 -223 22 -44 96 -114 119 -114 10 0 13 -20 13
-79 0 -64 -4 -84 -23 -112 -31 -48 -105 -83 -155 -74 -56 9 -98 39 -122 84
-20 39 -20 55 -20 751 l0 710 86 0 86 0 -7 -49z m919 35 c67 -28 64 -121 -4
-145 -45 -15 -655 -15 -700 0 -66 24 -71 117 -6 145 46 20 662 20 710 0z m26
-341 c33 -35 31 -81 -4 -112 l-27 -23 -349 0 -349 0 -27 23 c-35 31 -37 77 -4
112 l23 25 357 0 357 0 23 -25z m-26 -309 c67 -28 64 -121 -4 -145 -45 -15
-655 -15 -700 0 -66 24 -71 117 -6 145 46 20 662 20 710 0z m26 -341 c33 -35
31 -81 -4 -112 l-27 -23 -349 0 -349 0 -27 23 c-35 31 -37 77 -4 112 l23 25
357 0 357 0 23 -25z"/>
                <path d="M200 4310 l0 -80 85 0 86 0 -3 78 -3 77 -82 3 -83 3 0 -81z"/>
                <path d="M200 3900 l0 -80 85 0 85 0 0 80 0 80 -85 0 -85 0 0 -80z"/>
                <path d="M204 3567 c-3 -8 -4 -45 -2 -83 l3 -69 80 0 80 0 0 80 0 80 -78 3
c-59 2 -79 0 -83 -11z"/>
                <path d="M4754 1697 c-3 -8 -4 -45 -2 -83 l3 -69 80 0 80 0 0 80 0 80 -78 3
c-59 2 -79 0 -83 -11z"/>
                <path d="M4750 1220 l0 -80 85 0 85 0 0 80 0 80 -85 0 -85 0 0 -80z"/>
                <path d="M4752 813 l3 -78 83 -3 82 -3 0 81 0 80 -85 0 -86 0 3 -77z"/>
                <path d="M4778 480 c-86 -21 -156 -94 -179 -185 -24 -97 26 -207 118 -262 63
-37 165 -39 228 -6 214 114 156 430 -85 457 -25 2 -62 1 -82 -4z m102 -170
c10 -5 23 -24 29 -41 14 -40 -3 -78 -42 -97 -81 -39 -151 81 -80 136 20 14 67
16 93 2z"/>
        </g>
</svg>